# xmcd CD database file
#
# Track frame offsets:
#	150
#	12750
#	26127
#	39697
#	52532
#	65735
#	79337
#	90617
#	104567
#	117090
#	129667
#	144277
#	157655
#	171165
#	184447
#	195425
#	209500
#	223120
#	235992
#	248965
#
# Disc length: 3511 seconds
#
# Revision: 0
# Processed by: cddbd v1.5PL3 Copyright (c) Steve Scherf et al.
# Submitted via: CDex 1.50
#
DISCID=1a0db514
DTITLE=Blind Lemon Jefferson - King Of The Blues Entry1
DYEAR=1900
DGENRE=Blues
TTITLE0=Jack O' Diamond Blues
TTITLE1=Rabbit Foot Blues
TTITLE2=Weary Dog Blues
TTITLE3=Bad Luck Blues
TTITLE4=Easy Rider Blues
TTITLE5=Match Box Blues
TTITLE6=Rising High Water Blues
TTITLE7=That Black Snake Moan
TTITLE8=Prison Cell Blues
TTITLE9=Blind Lemon's Penitentiary Blues
TTITLE10=Cat Man Blues
TTITLE11=Piney Woods Money Mama
TTITLE12=Deceitful Brownskin Woman
TTITLE13=Hot Dogs
TTITLE14=Lonesome House Blues
TTITLE15=Wartime Blues
TTITLE16=Broke And Hungry
TTITLE17=See That My Grave Is Kept Clean
TTITLE18=Big Night Blues
TTITLE19=All I Want Is That Pure Religion
EXTD=
EXTT0=
EXTT1=
EXTT2=
EXTT3=
EXTT4=
EXTT5=
EXTT6=
EXTT7=
EXTT8=
EXTT9=
EXTT10=
EXTT11=
EXTT12=
EXTT13=
EXTT14=
EXTT15=
EXTT16=
EXTT17=
EXTT18=
EXTT19=
PLAYORDER=
